<svg width="264" height="133" viewBox="0 0 264 133" fill="none" xmlns="http://www.w3.org/2000/svg">
<g clip-path="url(#clip0_7_6)">
<path d="M75.4351 120.29L253.136 120.512C257.062 120.512 258.516 115.495 258.507 111.945L258.423 75.0839C258.411 70.2504 258.306 62.4395 257.3 60.684C262.181 61.2856 263.333 71.7637 263.333 81.6792V111.945C263.333 119.616 261.177 125.119 252.005 126.023H75.4351V120.29Z" fill="white"/>
<path fill-rule="evenodd" clip-rule="evenodd" d="M127.405 130.318L115.684 130.368C111.157 130.386 105.553 127.994 102.625 124.528H113.596C112.216 115.795 110.699 93.494 123.436 90.3832C129.501 88.9028 136.308 94.4714 137.829 105.06C139.474 116.518 136.739 130.279 127.405 130.318Z" fill="white"/>
<path fill-rule="evenodd" clip-rule="evenodd" d="M123.423 99.4466C126.15 99.4466 128.362 104.052 128.362 109.732C128.362 115.411 126.15 120.017 123.423 120.017C120.696 120.017 118.485 115.411 118.485 109.732C118.485 104.052 120.696 99.4466 123.423 99.4466Z" fill="#182D4D"/>
<path fill-rule="evenodd" clip-rule="evenodd" d="M123.423 102.017C125.429 102.017 127.056 105.527 127.056 109.855C127.056 114.183 125.429 117.69 123.423 117.69C122.555 117.69 121.758 117.033 121.134 115.937C122.951 115.578 124.364 112.828 124.364 109.487C124.364 106.399 123.156 103.814 121.536 103.159C122.087 102.436 122.733 102.019 123.423 102.019" fill="white"/>
<path fill-rule="evenodd" clip-rule="evenodd" d="M125.655 96.6089C132.565 101.159 133.661 113.933 128.111 121.762C134.47 119.083 135.871 99.5575 125.655 96.6089Z" fill="#182D4D"/>
<path fill-rule="evenodd" clip-rule="evenodd" d="M83.8721 6.14561C58.9099 10.1229 38.8571 11.7081 22.9089 15.1946C16.3876 16.3609 15.4615 20.4881 14.7983 24.6461C14.0755 32.7177 10.1414 79.5745 10.7553 83.6894C13.1598 99.8532 68.5523 92.9376 83.2089 86.6462C89.6502 84.3506 89.3093 74.8067 89.7015 64.9713C89.9356 59.1091 91.106 17.4327 91.2497 13.8004C91.6707 8.96483 91.0875 4.51527 83.8742 6.14561" fill="white"/>
<path fill-rule="evenodd" clip-rule="evenodd" d="M84.4737 111.286L69.0964 112.233C67.425 112.42 67.1416 111.198 67.8151 109.204L71.4228 99.461C72.2811 96.843 72.5419 94.9293 78.9749 93.7363L85.7653 92.4776C87.8289 92.0875 88.525 93.0238 88.564 95.1654L88.7385 107.14C88.6174 110.058 88.5927 110.925 84.4737 111.286Z" fill="white"/>
<path fill-rule="evenodd" clip-rule="evenodd" d="M48.9081 122.731C47.5776 128.624 42.6373 133 36.7443 133C29.8307 133 24.2272 126.976 24.2272 119.545C24.2272 119.048 24.2539 118.559 24.3011 118.076C31.8491 120.715 40.0501 122.267 48.9081 122.731Z" fill="white"/>
<path fill-rule="evenodd" clip-rule="evenodd" d="M28.7958 121.512C30.2763 121.653 29.9703 121.84 31.0688 121.885C31.5247 124.754 33.4753 126.947 37.3048 128.372C31.9456 128.988 29.2393 125.534 28.7958 121.512Z" fill="#182D4D"/>
<path fill-rule="evenodd" clip-rule="evenodd" d="M15.3116 112.284L16.0426 116.185C16.4779 118.506 17.8085 121.861 20.6297 122.13C47.1649 127.144 69.2915 126.559 88.5599 125.53L87.9357 113.838L67.848 114.725C65.6037 114.962 65.6509 116.025 64.0083 119.51C52.9634 119.879 40.7564 119.892 28.3133 117.541C27.5802 115.545 27.1942 114.775 26.4119 114.413L15.3137 112.284H15.3116Z" fill="white"/>
<path fill-rule="evenodd" clip-rule="evenodd" d="M23.1369 111.031L23.1923 111.044L23.2169 111.05L23.8165 111.194C25.646 111.563 25.7898 110.801 25.0834 108.183L22.9233 100.348C22.0835 97.305 21.3915 96.7054 19.1411 95.6705C18.2335 95.2516 14.3199 94.1018 12.6218 93.8862C11.8621 94.5022 11.1988 95.1716 11.3508 96.4652L12.9175 108.582L23.1369 111.031Z" fill="white"/>
<path fill-rule="evenodd" clip-rule="evenodd" d="M113.337 25.8924L110.368 24.7549L102.598 41.6702L105.941 41.9926L113.337 25.8924Z" fill="#182D4D"/>
<path fill-rule="evenodd" clip-rule="evenodd" d="M90.3257 0.00413103C75.548 -0.178615 32.0421 4.9547 25.8411 9.58905C68.8295 3.1991 90.3257 0.00413103 90.3257 0.00413103Z" fill="white"/>
<path fill-rule="evenodd" clip-rule="evenodd" d="M96.6459 98.344C95.7814 71.3736 96.8122 48.6248 98.229 20.8761C98.1653 4.11691 110.029 1.53793 118.339 4.44133L249.235 58.8483C252.754 60.8646 253.436 60.9796 253.43 72.6856L253.273 79.283L136.881 55.9531C117.555 52.0785 112.567 57.8421 109.98 86.5702C108.728 99.0195 107.239 98.344 96.6459 98.344Z" fill="white"/>
<path fill-rule="evenodd" clip-rule="evenodd" d="M126.472 77.9997L244.707 91.8719L245.37 90.9952L125.754 73.2585C120.237 72.1744 116.249 78.1311 115.169 85.5148C118.403 80.0283 122.226 77.5233 126.472 77.9997Z" fill="white"/>
<path fill-rule="evenodd" clip-rule="evenodd" d="M233.059 129.887L224.192 129.924C220.763 129.938 217.357 128.127 215.139 125.501H222.944C222.591 117.937 221.498 101.584 230.896 99.6458C235.527 98.691 240.643 102.742 241.795 110.76C243.042 119.436 240.124 129.856 233.056 129.885" fill="white"/>
<path fill-rule="evenodd" clip-rule="evenodd" d="M230.89 106.512C232.956 106.512 234.629 109.999 234.629 114.3C234.629 118.602 232.956 122.089 230.89 122.089C228.825 122.089 227.151 118.602 227.151 114.3C227.151 109.999 228.825 106.512 230.89 106.512Z" fill="#182D4D"/>
<path fill-rule="evenodd" clip-rule="evenodd" d="M230.89 108.459C232.41 108.459 233.642 111.116 233.642 114.393C233.642 117.67 232.41 120.327 230.89 120.327C230.233 120.327 229.629 119.83 229.155 118.998C230.531 118.727 231.601 116.643 231.601 114.114C231.601 111.775 230.685 109.818 229.461 109.321C229.878 108.773 230.367 108.457 230.89 108.457" fill="white"/>
<path fill-rule="evenodd" clip-rule="evenodd" d="M232.58 104.362C237.812 107.808 238.644 117.481 234.44 123.407C239.255 121.378 240.317 106.592 232.58 104.362Z" fill="#182D4D"/>
<path fill-rule="evenodd" clip-rule="evenodd" d="M16.0262 27.0587C16.7449 28.3605 16.8927 29.5391 16.4677 30.5966C9.71428 29.4303 4.44545 30.9046 4.42081 33.9127C5.3407 33.9168 6.49261 34.0277 7.41661 34.3152C9.4802 34.9579 8.80671 37.0276 8.59316 39.6579C8.35498 42.588 7.99975 46.976 7.52543 52.8218C7.07165 58.4191 2.06154 57.2405 0.993809 53.9183C0.993809 53.9183 0.663224 47.8014 0 35.5698C0.326479 29.342 5.66923 26.5433 16.0262 27.0587Z" fill="white"/>
<path fill-rule="evenodd" clip-rule="evenodd" d="M92.069 21.3115C92.7877 22.6133 92.9355 23.7919 92.5105 24.8493C85.7571 23.683 80.4883 25.1573 80.4636 28.1655C81.3835 28.1696 82.5354 28.2804 83.4594 28.5679C85.523 29.2106 84.8495 31.2803 84.636 33.9107C84.3978 36.8407 84.0426 41.2287 83.5682 47.0745C83.1145 52.6719 78.1044 51.4933 77.0366 48.1689C77.0366 48.1689 76.706 42.0541 76.0428 29.8225C76.3693 23.5948 81.712 20.7961 92.069 21.3115Z" fill="#182D4D"/>
<path fill-rule="evenodd" clip-rule="evenodd" d="M139.509 10.1249L139.842 19.0446L141.468 62.6654H138.215H134.959L136.587 19.0446L136.92 10.1249H139.509Z" fill="#182D4D"/>
<path fill-rule="evenodd" clip-rule="evenodd" d="M182.393 27.1799L182.662 34.3644L183.972 69.5071H181.35H178.73L180.04 34.3644L180.309 27.1799H182.393Z" fill="#182D4D"/>
<path fill-rule="evenodd" clip-rule="evenodd" d="M221.587 41.894L221.81 47.9082L222.909 77.3282H220.714H218.519L219.615 47.9082L219.841 41.894H221.587Z" fill="#182D4D"/>
<path fill-rule="evenodd" clip-rule="evenodd" d="M214.108 37.7258C210.544 31.7136 209.911 30.9765 205.222 28.8739L151.827 4.93827C146.279 2.45169 145.316 2.35519 140.673 2.46607L130.729 2.65087L214.11 37.7278L214.108 37.7258Z" fill="white"/>
<path fill-rule="evenodd" clip-rule="evenodd" d="M17.2377 45.1423L46.7049 88.7549C47.4872 88.7057 48.2613 88.6502 49.0252 88.5927C52.5713 88.3217 56.1297 87.9398 59.6737 87.4449L18.7551 26.8821C18.2191 32.9641 17.7181 39.0542 17.2377 45.1444" fill="#182D4D"/>
<path fill-rule="evenodd" clip-rule="evenodd" d="M16.3301 56.9244L38.0337 89.0486C39.6825 89.0486 41.3293 89.0137 42.9555 88.9501L16.8373 50.2921C16.7407 51.5529 16.6442 52.8115 16.5477 54.0723C16.4759 55.023 16.4019 55.9757 16.3321 56.9264" fill="#182D4D"/>
</g>
<defs>
<clipPath id="clip0_7_6">
<rect width="263.264" height="132.966" fill="white" transform="scale(1.00025)"/>
</clipPath>
</defs>
</svg>
